# xmcd
#
# Track frame offsets:
#	150
#	10187
#	24740
#	34690
#	49035
#	64052
#	78700
#	98035
#	116375
#	127130
#	139082
#	151780
#	162762
#	174300
#
# Disc length: 2466 seconds
#
# Revision: 2
# Processed by: cddbd v1.5.2PL0 Copyright (c) Steve Scherf et al.
# Submitted via: audiograbber 1.83.01
#
DISCID=ac09a00e
DTITLE=Georges Hamel - Compilation Vol 3
DYEAR=1995
DGENRE=Country
TTITLE0=Bonjour Mes Amis(Georges Hamel-Georges Hamel)
TTITLE1=Un Jour A La Fois(A.Breton-R.Ouelette)(W.Wikim-K.Kristofferson)
TTITLE2=Il Y'a L'amour(Georges Hamel-Georges Hamel)
TTITLE3=Comme Tu Es Belle(Roger Miron-Roger Miron)
TTITLE4=Mon Vieux Moulin(J.G Huot-J.G Huot)
TTITLE5=Pourquoi Papa(Georges Hamel-Georges Hamel)
TTITLE6=Vivre(Denis Champoux-Denis Champoux)
TTITLE7=Le Jour De Tes Noces(Georges Hamel-Georges Hamel)
TTITLE8=Saison Des Fleurs(Georges Hamel-Georges Hamel)
TTITLE9=J'ai Quelque Chose Pour Toi(J.G Huot-J.G Huot)
TTITLE10=Je T'ai Aimé Je T'aime Encore(Soldat Lebrun-Soldat Lebrun)
TTITLE11=Rossignol Sauvage(Georges Hamel-Georges Hamel)
TTITLE12=En Marchant Dans Les Feuilles(J.G Huot-J.G Huot)
TTITLE13=Guitare Chante Avec Moi(Georges Hamel-Georges Hamel)
EXTD=
EXTT0=
EXTT1=
EXTT2=
EXTT3=
EXTT4=
EXTT5=
EXTT6=
EXTT7=
EXTT8=
EXTT9=
EXTT10=
EXTT11=
EXTT12=
EXTT13=
PLAYORDER=
